<svg width="54" height="54" viewBox="0 0 54 54" fill="none" xmlns="http://www.w3.org/2000/svg">
<path fill-rule="evenodd" clip-rule="evenodd" d="M27 0C12.0883 0 0 12.0883 0 27C0 41.9117 12.0883 54 27 54C41.9117 54 54 41.9117 54 27C54 12.0883 41.9117 0 27 0ZM28.4322 37C17.4812 37 11.235 29.4925 10.9747 17H16.4602C16.6404 26.1692 20.6843 30.053 23.8875 30.8538V17H29.0529V24.9079C32.216 24.5676 35.539 20.964 36.6601 17H41.8254C40.9645 21.8849 37.3609 25.4885 34.7983 26.97C37.3609 28.1712 41.4652 31.3143 43.0268 37H37.341C36.1197 33.1962 33.0769 30.2532 29.0529 29.8528V37H28.4322Z" fill="#3358F5"/>
</svg>
