<svg width="54" height="54" viewBox="0 0 54 54" fill="none" xmlns="http://www.w3.org/2000/svg">
<path fill-rule="evenodd" clip-rule="evenodd" d="M27 0C12.0883 0 0 12.0883 0 27C0 41.9117 12.0883 54 27 54C41.9117 54 54 41.9117 54 27C54 12.0883 41.9117 0 27 0ZM12.2218 26.715C20.0928 23.2857 25.3414 21.0249 27.9676 19.9326C35.4657 16.8138 37.0238 16.2721 38.0393 16.2542C38.2627 16.2503 38.7621 16.3056 39.0856 16.5681C39.3587 16.7897 39.4339 17.0891 39.4698 17.2993C39.5058 17.5094 39.5506 17.9881 39.515 18.3622C39.1087 22.6315 37.3505 32.9921 36.456 37.7738C36.0775 39.7971 35.3323 40.4755 34.6108 40.5419C33.3692 40.6562 32.3642 39.9397 31.2455 39.1422C30.9515 38.9326 30.6497 38.7174 30.3336 38.5102C29.0932 37.6971 28.1344 37.0442 27.1732 36.3896C26.293 35.7902 25.4107 35.1893 24.3081 34.4628C22.0138 32.9508 22.9742 32.025 24.255 30.7904C24.4623 30.5905 24.678 30.3825 24.8897 30.1627C24.9842 30.0645 25.4464 29.6348 26.098 29.029L26.0981 29.029C28.1883 27.0857 32.2274 23.3306 32.3294 22.896C32.3461 22.8247 32.3616 22.559 32.2037 22.4187C32.0458 22.2783 31.8128 22.3263 31.6447 22.3645C31.4064 22.4186 27.6101 24.9278 20.2559 29.892C19.1784 30.6319 18.2024 30.9925 17.3279 30.9736C16.3639 30.9527 14.5094 30.4285 13.1309 29.9804C12.9284 29.9146 12.7309 29.8525 12.5403 29.7925C11.1391 29.3519 10.1101 29.0284 10.2131 28.2067C10.2741 27.7205 10.9436 27.2232 12.2218 26.715Z" fill="#BEC3DA"/>
</svg>
