<svg width="80" height="80" viewBox="0 0 80 80" fill="none" xmlns="http://www.w3.org/2000/svg">
<rect x="12" y="12" width="56" height="56" fill="white"/>
<path fill-rule="evenodd" clip-rule="evenodd" d="M21.7476 0L58.2524 1.59568e-06C70.2633 2.12069e-06 80 9.73672 80 21.7476V58.2524C80 70.2633 70.2633 80 58.2524 80H21.7476C9.73672 80 -5.25011e-07 70.2633 0 58.2524L1.59568e-06 21.7476C2.12069e-06 9.73672 9.73672 -5.25011e-07 21.7476 0ZM23.8066 24.9951C20.167 28.9369 17.8641 34.2228 17.8641 40L17.8641 62.1359H33.7903V56.2979H23.8066L23.7266 40L23.8066 24.9951ZM62.1227 42.9677H56.188C54.7868 50.5518 48.1134 56.2979 40.0924 56.2979H39.6528V62.1359H40.0924C51.3585 62.1359 60.6672 53.7897 62.1227 42.9677ZM62.1359 37.1296C60.7223 26.2604 51.3926 17.8641 40.0924 17.8641C36.2936 17.8641 32.7169 18.8132 29.5891 20.4864L29.5891 27.501C32.4311 25.1297 36.0948 23.7021 40.0924 23.7021C48.1476 23.7021 54.8435 29.4975 56.2058 37.1296H62.1359Z" fill="#3358F5"/>
</svg>
