<svg width="112" height="128" viewBox="0 0 112 128" fill="none" xmlns="http://www.w3.org/2000/svg">
<g filter="url(#filter0_d_474_1795)">
<rect x="24" y="24" width="48" height="48" rx="24" fill="white" shape-rendering="crispEdges"/>
<path fill-rule="evenodd" clip-rule="evenodd" d="M41.1666 44.6931C41.23 44.8919 41.4153 45.0253 41.6236 45.0253C41.8309 45.0253 42.0162 44.8909 42.0796 44.6931C42.3772 43.7725 43.1068 43.0448 44.0313 42.7463C44.229 42.6829 44.3634 42.4986 44.3644 42.2912C44.3653 42.0839 44.2319 41.8986 44.0351 41.8333C43.1068 41.5271 42.3762 40.7955 42.0796 39.8768C42.0162 39.6781 41.8309 39.5437 41.6236 39.5437C41.4153 39.5437 41.23 39.6781 41.1666 39.8759C40.869 40.7946 40.1385 41.5271 39.2101 41.8333C39.0133 41.8986 38.8799 42.0839 38.8809 42.2912C38.8818 42.4986 39.0162 42.6829 39.214 42.7463C40.1385 43.0448 40.8681 43.7725 41.1666 44.6931Z" fill="#3358F5"/>
<path fill-rule="evenodd" clip-rule="evenodd" d="M55.6031 52.8206H54.9148V52.1294C54.9148 51.732 54.5922 51.4094 54.1948 51.4094C53.7974 51.4094 53.4748 51.732 53.4748 52.1294V52.8206H52.7903C52.3929 52.8206 52.0703 53.1432 52.0703 53.5406C52.0703 53.9381 52.3929 54.2606 52.7903 54.2606H53.4748V54.9518C53.4748 55.3493 53.7974 55.6718 54.1948 55.6718C54.5922 55.6718 54.9148 55.3493 54.9148 54.9518V54.2606H55.6031C56.0006 54.2606 56.3231 53.9381 56.3231 53.5406C56.3231 53.1432 56.0006 52.8206 55.6031 52.8206Z" fill="#3358F5"/>
<path fill-rule="evenodd" clip-rule="evenodd" d="M49.3457 50.9045C47.3153 50.2536 45.7083 48.6466 45.0469 46.6056C44.9835 46.4078 44.7992 46.2734 44.5909 46.2734C44.3826 46.2734 44.1982 46.4078 44.1339 46.6056C43.4725 48.6466 41.8645 50.2536 39.8341 50.9045C39.6354 50.9678 39.5 51.1522 39.5 51.3605C39.5 51.5688 39.6334 51.7541 39.8322 51.8184C41.8654 52.4789 43.4734 54.0898 44.1339 56.1269C44.1982 56.3246 44.3826 56.459 44.5909 56.459C44.7992 56.459 44.9835 56.3246 45.0469 56.1269C45.7073 54.0888 47.3153 52.4789 49.3476 51.8184C49.5464 51.7541 49.6798 51.5688 49.6798 51.3605C49.6798 51.1522 49.5444 50.9678 49.3457 50.9045Z" fill="#3358F5"/>
<path fill-rule="evenodd" clip-rule="evenodd" d="M56.7894 43.3882C55.3494 42.9197 54.2099 41.7821 53.7434 40.346C53.6138 39.9504 52.96 39.9504 52.8304 40.346C52.3638 41.7821 51.2243 42.9197 49.7843 43.3882C49.5875 43.4525 49.4531 43.6368 49.4531 43.8452C49.4531 44.0525 49.5875 44.2368 49.7843 44.3012C51.2272 44.7716 52.3667 45.9082 52.8304 47.3434C52.8938 47.5411 53.079 47.6755 53.2874 47.6755C53.4947 47.6755 53.68 47.5411 53.7434 47.3434C54.208 45.9082 55.3466 44.7716 56.7894 44.3012C56.9862 44.2368 57.1206 44.0525 57.1206 43.8452C57.1206 43.6368 56.9862 43.4525 56.7894 43.3882Z" fill="#3358F5"/>
<rect x="24.5" y="24.5" width="47" height="47" rx="23.5" stroke="#F6F6F9" shape-rendering="crispEdges"/>
</g>
<defs>
<filter id="filter0_d_474_1795" x="-16" y="0" width="128" height="128" filterUnits="userSpaceOnUse" color-interpolation-filters="sRGB">
<feFlood flood-opacity="0" result="BackgroundImageFix"/>
<feColorMatrix in="SourceAlpha" type="matrix" values="0 0 0 0 0 0 0 0 0 0 0 0 0 0 0 0 0 0 127 0" result="hardAlpha"/>
<feMorphology radius="16" operator="erode" in="SourceAlpha" result="effect1_dropShadow_474_1795"/>
<feOffset dy="16"/>
<feGaussianBlur stdDeviation="28"/>
<feComposite in2="hardAlpha" operator="out"/>
<feColorMatrix type="matrix" values="0 0 0 0 0.104167 0 0 0 0 0.159794 0 0 0 0 0.395833 0 0 0 0.08 0"/>
<feBlend mode="normal" in2="BackgroundImageFix" result="effect1_dropShadow_474_1795"/>
<feBlend mode="normal" in="SourceGraphic" in2="effect1_dropShadow_474_1795" result="shape"/>
</filter>
</defs>
</svg>
