<svg width="48" height="48" viewBox="0 0 48 48" fill="none" xmlns="http://www.w3.org/2000/svg">
<rect x="0.5" y="0.5" width="47" height="47" rx="23.5" fill="white"/>
<path fill-rule="evenodd" clip-rule="evenodd" d="M32.749 22.9659L26.96 21.0959L25.029 15.2459C24.882 14.7959 24.478 14.5049 24.001 14.5039H24C23.523 14.5039 23.119 14.7949 22.97 15.2469L21.04 21.0959L15.246 22.9669C14.789 23.1199 14.496 23.5289 14.5 24.0099C14.504 24.4859 14.8 24.8849 15.25 25.0269L21.093 26.9659L22.971 32.7579C23.119 33.2089 23.523 33.4989 24 33.4989H24.001C24.478 33.4989 24.882 33.2079 25.03 32.7559L26.961 26.9069L32.746 25.0289C33.2 24.8849 33.496 24.4859 33.5 24.0099C33.504 23.5289 33.211 23.1199 32.749 22.9659Z" fill="#3358F5"/>
<rect x="0.5" y="0.5" width="47" height="47" rx="23.5" stroke="#F6F6F9"/>
</svg>
