<svg width="18" height="19" viewBox="0 0 18 19" fill="none" xmlns="http://www.w3.org/2000/svg">
<path d="M13.4392 11.2401C13.2449 11.4283 13.1557 11.7006 13.1999 11.9676L13.8667 15.6576C13.9229 15.9703 13.7909 16.2868 13.5292 16.4676C13.2727 16.6551 12.9314 16.6776 12.6517 16.5276L9.32991 14.7951C9.21441 14.7336 9.08616 14.7006 8.95491 14.6968H8.75166C8.68116 14.7073 8.61216 14.7298 8.54916 14.7643L5.22666 16.5051C5.06241 16.5876 4.87641 16.6168 4.69416 16.5876C4.25016 16.5036 3.95391 16.0806 4.02666 15.6343L4.69416 11.9443C4.73841 11.6751 4.64916 11.4013 4.45491 11.2101L1.74666 8.58506C1.52016 8.36531 1.44141 8.03531 1.54491 7.73756C1.64541 7.44056 1.90191 7.22381 2.21166 7.17506L5.93916 6.63431C6.22266 6.60506 6.47166 6.43256 6.59916 6.17756L8.24166 2.81006C8.28066 2.73506 8.33091 2.66606 8.39166 2.60756L8.45916 2.55506C8.49441 2.51606 8.53491 2.48381 8.57991 2.45756L8.66166 2.42756L8.78916 2.37506H9.10491C9.38691 2.40431 9.63516 2.57306 9.76491 2.82506L11.4292 6.17756C11.5492 6.42281 11.7824 6.59306 12.0517 6.63431L15.7792 7.17506C16.0942 7.22006 16.3574 7.43756 16.4617 7.73756C16.5599 8.03831 16.4752 8.36831 16.2442 8.58506L13.4392 11.2401Z" fill="#F58F29"/>
</svg>
