<svg width="20" height="20" viewBox="0 0 20 20" fill="none" xmlns="http://www.w3.org/2000/svg">
<path fill-rule="evenodd" clip-rule="evenodd" d="M10.445 13.824L8.60184 15.5368C8.37621 15.7472 8.00901 15.5744 8.02981 15.2664C8.08741 14.396 8.17701 13.0736 8.23701 12.3384C8.24661 12.2224 8.34421 12.0928 8.43704 12.0088C10.5898 10.0568 12.7474 8.10961 14.9042 6.16082C14.9842 6.08882 15.0786 5.91122 15.029 5.81762C14.973 5.71202 14.7146 5.74402 14.6074 5.81122C11.8682 7.53602 9.12904 9.26001 6.39381 10.9904C6.22581 11.096 6.02021 11.1216 5.83141 11.0608C4.70341 10.6984 3.56901 10.3552 2.43861 9.99841C2.17861 9.91601 1.86981 9.83441 1.84021 9.51201C1.80901 9.17521 2.09781 9.01521 2.35861 8.91041C3.40981 8.48641 4.46821 8.08081 5.52501 7.67282C9.32664 6.20802 13.1282 4.74402 16.9298 3.28002C17.057 3.23122 17.2266 3.20082 17.3594 3.17442C17.7578 3.09442 18.1162 3.29442 18.1554 3.69762C18.185 3.99282 18.133 4.32162 18.0714 4.61362C17.2794 8.38081 16.477 12.1464 15.6754 15.9128C15.4594 16.9304 14.9362 17.1232 14.0938 16.5016C13.0082 15.7 10.445 13.824 10.445 13.824Z" fill="white"/>
</svg>
