<svg width="48" height="48" viewBox="0 0 48 48" fill="none" xmlns="http://www.w3.org/2000/svg">
<rect x="0.5" y="0.5" width="47" height="47" rx="23.5" fill="white"/>
<path fill-rule="evenodd" clip-rule="evenodd" d="M33.1544 17.641C31.9514 17.251 31.0014 16.303 30.6124 15.102C30.4794 14.69 29.7944 14.69 29.6614 15.102C29.2724 16.303 28.3224 17.251 27.1194 17.641C26.9134 17.708 26.7734 17.9 26.7734 18.117C26.7734 18.333 26.9134 18.525 27.1194 18.592C28.3204 18.981 29.2704 19.934 29.6614 21.141C29.7274 21.347 29.9204 21.487 30.1364 21.487C30.3534 21.487 30.5464 21.347 30.6124 21.141C31.0034 19.934 31.9534 18.981 33.1544 18.592C33.3604 18.525 33.5004 18.333 33.5004 18.117C33.5004 17.9 33.3604 17.708 33.1544 17.641Z" fill="#3358F5"/>
<path fill-rule="evenodd" clip-rule="evenodd" d="M29.574 24.4011L24.841 22.8641L23.305 18.132C23.173 17.722 22.807 17.457 22.375 17.457C21.942 17.457 21.577 17.722 21.444 18.132L19.921 22.8611L15.179 24.4001C14.773 24.5291 14.5 24.9031 14.5 25.3321C14.5 25.7601 14.773 26.1341 15.177 26.2621L19.906 27.7911L21.444 32.5311C21.577 32.9411 21.942 33.2071 22.375 33.2071C22.807 33.2071 23.173 32.9411 23.305 32.5311L24.83 27.8021L29.571 26.2631C29.977 26.1341 30.251 25.7601 30.251 25.3321C30.251 24.9031 29.977 24.5291 29.574 24.4011Z" fill="#3358F5"/>
<rect x="0.5" y="0.5" width="47" height="47" rx="23.5" stroke="#F6F6F9"/>
</svg>
