<svg width="48" height="48" viewBox="0 0 48 48" fill="none" xmlns="http://www.w3.org/2000/svg">
<rect x="0.5" y="0.5" width="47" height="47" rx="23.5" fill="white"/>
<path fill-rule="evenodd" clip-rule="evenodd" d="M17.1666 20.6931C17.23 20.8919 17.4153 21.0253 17.6236 21.0253C17.8309 21.0253 18.0162 20.8909 18.0796 20.6931C18.3772 19.7725 19.1068 19.0448 20.0313 18.7463C20.229 18.6829 20.3634 18.4986 20.3644 18.2912C20.3653 18.0839 20.2319 17.8986 20.0351 17.8333C19.1068 17.5271 18.3762 16.7955 18.0796 15.8768C18.0162 15.6781 17.8309 15.5437 17.6236 15.5437C17.4153 15.5437 17.23 15.6781 17.1666 15.8759C16.869 16.7946 16.1385 17.5271 15.2101 17.8333C15.0133 17.8986 14.8799 18.0839 14.8809 18.2912C14.8818 18.4986 15.0162 18.6829 15.214 18.7463C16.1385 19.0448 16.8681 19.7725 17.1666 20.6931Z" fill="#3358F5"/>
<path fill-rule="evenodd" clip-rule="evenodd" d="M31.6031 28.8206H30.9148V28.1294C30.9148 27.732 30.5922 27.4094 30.1948 27.4094C29.7974 27.4094 29.4748 27.732 29.4748 28.1294V28.8206H28.7903C28.3929 28.8206 28.0703 29.1432 28.0703 29.5406C28.0703 29.9381 28.3929 30.2606 28.7903 30.2606H29.4748V30.9518C29.4748 31.3493 29.7974 31.6718 30.1948 31.6718C30.5922 31.6718 30.9148 31.3493 30.9148 30.9518V30.2606H31.6031C32.0006 30.2606 32.3231 29.9381 32.3231 29.5406C32.3231 29.1432 32.0006 28.8206 31.6031 28.8206Z" fill="#3358F5"/>
<path fill-rule="evenodd" clip-rule="evenodd" d="M25.3457 26.9045C23.3153 26.2536 21.7083 24.6466 21.0469 22.6056C20.9835 22.4078 20.7992 22.2734 20.5909 22.2734C20.3826 22.2734 20.1982 22.4078 20.1339 22.6056C19.4725 24.6466 17.8645 26.2536 15.8341 26.9045C15.6354 26.9678 15.5 27.1522 15.5 27.3605C15.5 27.5688 15.6334 27.7541 15.8322 27.8184C17.8654 28.4789 19.4734 30.0898 20.1339 32.1269C20.1982 32.3246 20.3826 32.459 20.5909 32.459C20.7992 32.459 20.9835 32.3246 21.0469 32.1269C21.7073 30.0888 23.3153 28.4789 25.3476 27.8184C25.5464 27.7541 25.6798 27.5688 25.6798 27.3605C25.6798 27.1522 25.5444 26.9678 25.3457 26.9045Z" fill="#3358F5"/>
<path fill-rule="evenodd" clip-rule="evenodd" d="M32.7894 19.3882C31.3494 18.9197 30.2099 17.7821 29.7434 16.346C29.6138 15.9504 28.96 15.9504 28.8304 16.346C28.3638 17.7821 27.2243 18.9197 25.7843 19.3882C25.5875 19.4525 25.4531 19.6368 25.4531 19.8452C25.4531 20.0525 25.5875 20.2368 25.7843 20.3012C27.2272 20.7716 28.3667 21.9082 28.8304 23.3434C28.8938 23.5411 29.079 23.6755 29.2874 23.6755C29.4947 23.6755 29.68 23.5411 29.7434 23.3434C30.208 21.9082 31.3466 20.7716 32.7894 20.3012C32.9862 20.2368 33.1206 20.0525 33.1206 19.8452C33.1206 19.6368 32.9862 19.4525 32.7894 19.3882Z" fill="#3358F5"/>
<rect x="0.5" y="0.5" width="47" height="47" rx="23.5" stroke="#F6F6F9"/>
</svg>
