<svg width="114" height="40" viewBox="0 0 114 40" fill="none" xmlns="http://www.w3.org/2000/svg">
<path fill-rule="evenodd" clip-rule="evenodd" d="M10.8738 0L29.1262 7.97839e-07C35.1316 1.06034e-06 40 4.86836 40 10.8738V29.1262C40 35.1316 35.1316 40 29.1262 40H10.8738C4.86836 40 -2.62506e-07 35.1316 0 29.1262L7.97839e-07 10.8738C1.06034e-06 4.86836 4.86836 -2.62506e-07 10.8738 0ZM11.9033 12.4976C10.0835 14.4685 8.93204 17.1114 8.93204 20L8.93204 31.068H16.8951V28.1489H11.9033L11.8633 20L11.9033 12.4976ZM31.0614 21.4838H28.094C27.3934 25.2759 24.0567 28.1489 20.0462 28.1489H19.8264V31.068H20.0462C25.6792 31.068 30.3336 26.8949 31.0614 21.4838ZM31.068 18.5648C30.3612 13.1302 25.6963 8.93204 20.0462 8.93204C18.1468 8.93204 16.3584 9.4066 14.7946 10.2432L14.7946 13.7505C16.2155 12.5649 18.0474 11.8511 20.0462 11.8511C24.0738 11.8511 27.4217 14.7487 28.1029 18.5648H31.068Z" fill="#3358F5"/>
<path d="M55.5332 31.0892V8.9108H60.4786V27.0237H69.3985V31.0892H55.5332Z" fill="#181D33"/>
<path d="M73.191 31.0892V8.9108H78.1515V31.0892H73.191Z" fill="#181D33"/>
<path d="M88.4671 31.0892H83.5975V8.9108H96.3857V12.946H88.4671V18.3768H95.8245V22.412H88.4671V31.0892Z" fill="#181D33"/>
<path d="M113.437 31.0892H100.588V8.9108H113.437V12.946H105.533V17.5576H112.875V21.5928H105.533V27.0085H113.437V31.0892Z" fill="#181D33"/>
</svg>
