<svg width="32" height="33" viewBox="0 0 32 33" fill="none" xmlns="http://www.w3.org/2000/svg">
<path fill-rule="evenodd" clip-rule="evenodd" d="M3.33398 16.2502C3.33398 9.25408 9.00457 3.5835 16.0007 3.5835C22.9968 3.5835 28.6673 9.25408 28.6673 16.2502C28.6673 23.245 22.9968 28.9168 16.0007 28.9168C9.00452 28.9168 3.33398 23.245 3.33398 16.2502ZM17.0007 11.8553C17.0007 11.303 16.5529 10.8553 16.0007 10.8553C15.4484 10.8553 15.0007 11.303 15.0007 11.8553V15.2527H11.6007C11.0484 15.2527 10.6007 15.7004 10.6007 16.2527C10.6007 16.805 11.0484 17.2527 11.6007 17.2527H15.0007V20.6458C15.0007 21.198 15.4484 21.6458 16.0007 21.6458C16.5529 21.6458 17.0007 21.198 17.0007 20.6458V17.2527H20.4003C20.9525 17.2527 21.4003 16.805 21.4003 16.2527C21.4003 15.7004 20.9525 15.2527 20.4003 15.2527H17.0007V11.8553Z" fill="#3358F5"/>
</svg>
