<svg width="32" height="33" viewBox="0 0 32 33" fill="none" xmlns="http://www.w3.org/2000/svg">
<path fill-rule="evenodd" clip-rule="evenodd" d="M3.33398 16.2497C3.33398 9.25359 9.00457 3.58301 16.0007 3.58301C22.9968 3.58301 28.6673 9.25359 28.6673 16.2497C28.6673 23.2445 22.9968 28.9163 16.0007 28.9163C9.00452 28.9163 3.33398 23.2445 3.33398 16.2497ZM17.0007 11.8548C17.0007 11.3025 16.5529 10.8548 16.0007 10.8548C15.4484 10.8548 15.0007 11.3025 15.0007 11.8548V15.2522H11.6007C11.0484 15.2522 10.6007 15.6999 10.6007 16.2522C10.6007 16.8045 11.0484 17.2522 11.6007 17.2522H15.0007L15.0007 20.6453C15.0007 21.1975 15.4484 21.6453 16.0007 21.6453C16.5529 21.6453 17.0007 21.1975 17.0007 20.6453V17.2522H20.4003C20.9525 17.2522 21.4003 16.8045 21.4003 16.2522C21.4003 15.6999 20.9525 15.2522 20.4003 15.2522L17.0007 15.2522V11.8548Z" fill="#3358F5"/>
</svg>
