<svg width="776" height="40" viewBox="0 0 776 40" fill="none" xmlns="http://www.w3.org/2000/svg">
<path fill-rule="evenodd" clip-rule="evenodd" d="M8.01847 0.0547181C6.56788 0.234193 5.16152 0.833548 4.00853 1.76366C2.41836 3.04646 1.36784 4.87642 1.05547 6.90787C0.978055 7.41127 0.956925 11.1356 0.978897 20.4157C1.0133 34.9238 0.941312 33.6182 1.80587 35.4115C2.52139 36.8956 3.52656 38.0075 4.92881 38.8661C5.72409 39.3531 7.12568 39.8046 8.20743 39.9225C8.83759 39.9911 13.0856 40.0137 21.2949 39.9921L33.4493 39.96L34.2184 39.752C35.7707 39.3322 36.9398 38.6354 38.0774 37.4521C38.8473 36.6512 39.2389 36.0456 39.7153 34.9197C40.3557 33.4058 40.3298 34.0828 40.2997 19.6564L40.2726 6.65379L40.061 5.95896C39.1838 3.07826 37.1205 1.03893 34.2574 0.222329C33.5441 0.0189371 33.5196 0.0184626 21.0611 0.00194827C14.1962 -0.00716306 8.32701 0.0165644 8.01847 0.0547181ZM10.7781 11.3738C10.7794 14.5843 10.8002 15.1057 10.9584 15.8659C11.6853 19.3609 14.222 22.2066 17.6018 23.3184L18.3965 23.5799L18.4207 28.5228L18.4449 33.4658H20.6404H22.8359L22.8601 28.5228L22.8843 23.5799L23.6917 23.3163C27.0647 22.2153 29.5915 19.3649 30.3437 15.8126C30.5156 15.0003 30.5353 14.5582 30.5427 11.3518L30.5509 7.79271H28.3538H26.1566L26.1087 11.4467C26.0625 14.9658 26.0529 15.1205 25.8485 15.6366C24.695 18.549 21.6375 19.9755 18.754 18.9468C17.953 18.6609 17.2698 18.2036 16.6626 17.5469C16.0441 16.8779 15.722 16.361 15.4236 15.5594C15.228 15.0339 15.2153 14.8234 15.1709 11.3993L15.1241 7.79271L12.9504 7.76728L10.7766 7.74175L10.7781 11.3738ZM90.061 13.2026V14.4838H92.5386H95.0163V21.0801V27.6763H96.3719H97.7276V21.0801V14.4838H100.205H102.683V13.2026V11.9213H96.3719H90.061V13.2026ZM129.797 19.8014V27.6815L131.129 27.6551L132.461 27.6289L132.485 19.7751L132.509 11.9213H131.153H129.797V19.8014ZM52.0706 12.3642C51.9519 12.4847 52.0071 16.0335 52.1418 16.9441C52.4624 19.1117 54.0869 21.0626 56.121 21.7228L56.7724 21.9343L56.7744 24.7104L56.7765 27.4865H58.1308H59.4851L59.5098 24.7242L59.5346 21.962L60.2388 21.7014C62.2797 20.9462 63.6427 19.3729 64.1074 17.2362C64.2311 16.6672 64.2569 16.1054 64.2358 14.4364L64.2094 12.3484L62.8846 12.3221L61.5596 12.2958L61.5264 14.5525C61.4937 16.7608 61.4876 16.8207 61.2447 17.3522C60.9385 18.0219 60.3073 18.6588 59.6017 19.01C59.1304 19.2445 58.9621 19.276 58.1789 19.2764C57.3971 19.2767 57.2209 19.244 56.7079 19.0035C56.0728 18.7057 55.4194 18.0745 55.1108 17.4602C54.8107 16.8631 54.7196 16.0887 54.7196 14.1342V12.3009H53.4263C52.7149 12.3009 52.1048 12.3294 52.0706 12.3642ZM69.7774 15.6807C67.6927 16.1433 65.8608 17.8962 65.2259 20.0361C65.1022 20.4529 65.0579 20.9109 65.0605 21.7444C65.0636 22.7193 65.1002 22.9945 65.3151 23.6551C65.9668 25.6579 67.5462 27.1591 69.5489 27.679C70.5228 27.9318 71.9224 27.9312 72.8993 27.6776C75.1477 27.0939 76.9102 25.2232 77.3485 22.9552C77.5122 22.1088 77.4196 20.4794 77.1648 19.722C76.482 17.6918 74.7722 16.1437 72.6991 15.6788C71.8887 15.497 70.6011 15.4979 69.7774 15.6807ZM105.493 15.6807C103.793 16.058 102.139 17.3738 101.39 18.9446C100.455 20.907 100.526 23.0935 101.583 24.9143C102.045 25.7095 103.082 26.7168 103.87 27.1348C105.25 27.8668 107.078 28.0766 108.61 27.679C110.764 27.1198 112.517 25.341 113.009 23.2155C113.192 22.4241 113.192 20.9687 113.008 20.1784C112.623 18.5178 111.377 16.9395 109.877 16.2124C109.443 16.0019 108.785 15.7618 108.414 15.6788C107.604 15.497 106.317 15.4979 105.493 15.6807ZM119.704 15.6807C118.007 16.0574 116.37 17.3589 115.599 18.9457C113.875 22.491 115.746 26.7108 119.471 27.6776C120.447 27.9312 121.847 27.9318 122.821 27.679C124.801 27.1648 126.473 25.599 127.093 23.6783C127.287 23.0782 127.319 22.7953 127.319 21.697C127.319 20.5953 127.287 20.3166 127.091 19.7086C126.455 17.7374 124.646 16.1072 122.615 15.6737C121.785 15.4966 120.52 15.4997 119.704 15.6807ZM79.3479 16.0364C79.3199 16.1102 79.312 17.8519 79.3303 19.9067C79.3614 23.4159 79.3753 23.6746 79.5584 24.1692C80.0357 25.4584 80.669 26.305 81.6527 26.9688C83.466 28.1924 85.7976 28.2231 87.6087 27.0471C88.366 26.5552 89.0805 25.7561 89.4568 24.98C90.0192 23.82 90.0664 23.3712 90.0387 19.4434L90.0142 15.955H88.7053H87.3963L87.3496 19.5615C87.3053 22.9813 87.2927 23.1902 87.1052 23.5952C86.8717 24.0997 86.3444 24.6531 85.8677 24.8939C85.3861 25.1372 83.9823 25.1364 83.4995 24.8926C83.0101 24.6455 82.4949 24.1068 82.2647 23.6018C82.0775 23.1909 82.0647 22.9784 82.0203 19.5615L81.9736 15.955L80.6861 15.9286C79.6448 15.9072 79.3889 15.9278 79.3479 16.0364ZM70.2399 18.0457C68.2438 18.6081 67.1745 21.0795 67.9915 23.2426C68.2647 23.9659 69.051 24.83 69.7558 25.1813C70.2343 25.4198 70.3834 25.4459 71.2683 25.4459C72.4481 25.4459 72.8718 25.2853 73.641 24.5469C75.5077 22.7548 75.0003 19.3718 72.6983 18.2614C71.9755 17.9128 71.0119 17.8283 70.2399 18.0457ZM105.955 18.0457C104.526 18.4484 103.568 19.7349 103.456 21.404C103.369 22.6957 103.763 23.7438 104.652 24.5884C105.389 25.2876 105.819 25.4459 106.984 25.4459C107.795 25.4459 108.042 25.4101 108.406 25.2393C110.294 24.3537 111.062 21.8899 110.07 19.8964C109.315 18.3776 107.567 17.5916 105.955 18.0457ZM120.167 18.0457C118.161 18.6106 117.094 21.0969 117.93 23.2543C118.214 23.9891 118.981 24.8314 119.682 25.1813C120.161 25.4198 120.31 25.4459 121.195 25.4459C122.088 25.4459 122.226 25.4213 122.727 25.1715C124.508 24.2839 125.217 21.9287 124.297 19.9529C123.576 18.4034 121.803 17.5848 120.167 18.0457Z" fill="#9CA0C9"/>
<path fill-rule="evenodd" clip-rule="evenodd" d="M212.508 19.2C212.508 10.149 212.508 5.62356 215.291 2.81178C218.075 0 222.555 0 231.515 0H233.099C242.059 0 246.539 0 249.323 2.81178C252.106 5.62356 252.106 10.149 252.106 19.2V20.8C252.106 29.851 252.106 34.3764 249.323 37.1882C246.539 40 242.059 40 233.099 40H231.515C222.555 40 218.075 40 215.291 37.1882C212.508 34.3764 212.508 29.851 212.508 20.8V19.2ZM233.578 28.8167C224.552 28.8167 219.405 22.5668 219.19 12.1668H223.711C223.859 19.8001 227.192 23.0334 229.832 23.7V12.1668H234.089V18.75C236.696 18.4667 239.435 15.4668 240.359 12.1668H244.616C243.906 16.2334 240.936 19.2334 238.824 20.4667C240.936 21.4667 244.319 24.0834 245.606 28.8167H240.92C239.913 25.6501 237.406 23.2 234.089 22.8667V28.8167H233.578ZM301.968 20.6284C301.968 14.9739 306.114 10.8901 311.919 10.8901C317.724 10.8901 321.871 14.9739 321.871 20.6284C321.871 26.2828 317.724 30.3666 311.919 30.3666C306.114 30.3666 301.968 26.2828 301.968 20.6284ZM317.517 20.6284C317.517 17.0682 315.236 14.6598 311.919 14.6598C308.602 14.6598 306.321 17.0682 306.321 20.6284C306.321 24.1886 308.602 26.597 311.919 26.597C315.236 26.597 317.517 24.1886 317.517 20.6284ZM274.601 30.0524C278.54 30.0524 281.339 27.8534 281.339 24.8168C281.339 22.5131 279.888 20.8377 278.229 20.2094C279.784 19.4764 280.821 18.2199 280.821 16.2304C280.821 13.2984 278.126 11.2042 274.29 11.2042H265.375V30.0524H274.601ZM269.418 18.7435V14.6597H274.186C275.534 14.6597 276.571 15.6021 276.571 16.754C276.571 17.9058 275.638 18.7435 274.186 18.7435H269.418ZM277.296 24.2932C277.296 25.6545 276.156 26.5969 274.601 26.5969H269.418V21.9896H274.601C276.26 21.9896 277.296 22.932 277.296 24.2932ZM290.15 22.5131L296.577 29.9476H301.968L293.467 20.2094L301.242 11.2042H296.37L290.15 18.4293H289.114V11.2042H284.967V29.9476H289.114V22.5131H290.15ZM341.877 11.2042H337.731V18.6388H329.438V11.2042H325.291V29.9476H329.438V22.4084H337.731V29.9476H341.877V11.2042ZM350.792 29.9476V14.9738H344.365V11.2042H361.262V14.9738H354.835V29.9476H350.792ZM379.092 29.9477V19.4765C379.092 14.0315 376.189 10.8901 371.628 10.8901C368.104 10.8901 364.89 12.775 363.957 16.021L367.689 16.6493C368.311 15.4975 369.555 14.4504 371.421 14.4504C373.701 14.4504 374.945 16.1257 375.153 18.5341H371.11C365.616 18.5341 362.921 20.9425 362.921 24.398C362.921 27.8535 365.616 30.3666 369.347 30.3666C372.354 30.3666 374.323 28.5865 375.256 27.0158L376.085 29.9477H379.092ZM371.213 21.7802H375.049C375.049 24.8168 373.08 26.8064 370.384 26.8064C368.311 26.8064 367.067 25.7592 367.067 24.1886C367.067 22.8273 368.104 21.7802 371.213 21.7802ZM395.056 29.9476L388.629 22.5131H387.592V29.9476H383.446V11.2042H387.592V18.4293H388.629L394.848 11.2042H399.72L391.946 20.2094L400.446 29.9476H395.056ZM407.91 14.9738V29.9476H411.952V14.9738H418.38V11.2042H401.482V14.9738H407.91ZM439.111 21.7802H424.184C424.599 24.7121 426.672 26.597 429.782 26.597C431.959 26.597 433.618 25.6545 434.551 24.2933L438.386 24.9216C437.038 28.4818 433.41 30.3666 429.471 30.3666C423.874 30.3666 419.831 26.2828 419.831 20.6284C419.831 14.9739 423.874 10.8901 429.471 10.8901C435.069 10.8901 439.111 14.9739 439.111 20.4189C439.182 20.7725 439.157 21.0783 439.134 21.3686C439.122 21.5081 439.111 21.6443 439.111 21.7802ZM424.495 18.5341H434.758C434.032 16.2304 432.166 14.555 429.575 14.555C427.087 14.4504 425.117 16.1257 424.495 18.5341Z" fill="#9CA0C9"/>
<path fill-rule="evenodd" clip-rule="evenodd" d="M576.195 40H519.158V0H576.195V40ZM538.546 24.5921C536.749 25.8805 534.344 26.0485 533.367 26.0485C526.572 26.0485 525.388 22.1835 525.388 19.9099H529.121C529.121 20.9455 529.687 22.8901 533.084 22.8901C534.938 22.8901 536.999 22.436 536.999 20.5153C536.999 19.0752 535.582 18.7221 533.6 18.2412L529.843 17.3331C527.193 16.7023 525.671 15.1583 525.671 12.3799C525.671 10.358 526.807 6.74586 532.855 6.74586C535.649 6.74586 537.441 7.62707 538.546 8.79225V7.22499H542.176V17.1313L546.754 11.9745H551.209L546.345 17.2303L551.338 25.5694H546.987L543.691 19.7332L542.176 21.2721L542.173 25.5694H538.546V24.5921ZM535.839 15.1096L531.285 14.0212C530.511 13.8448 529.301 13.5403 529.301 12.1023C529.301 10.4592 531.078 9.90274 532.57 9.90274C535.968 9.90274 536.278 11.85 536.379 12.6826H538.546V16.102C537.751 15.6462 536.812 15.3501 535.839 15.1096ZM529.056 29.0672C528.958 28.7174 528.765 28.0395 527.747 28.0395C527.156 28.0395 526.262 28.4549 526.262 30.0895C526.262 31.1275 526.708 32.0894 527.747 32.0894C528.43 32.0894 528.91 31.6843 529.056 30.9743H530.284C530.041 32.2356 529.203 33.1123 527.725 33.1123C526.157 33.1123 525.035 32.0658 525.035 30.0729C525.035 28.0464 526.222 27.0187 527.74 27.0187C529.505 27.0187 530.217 28.2144 530.284 29.0672H529.056ZM533.232 28.6693L531.788 30.2973V28.6693H530.642V32.9611H531.788V31.6056L532.264 31.1178L533.306 32.9611H534.68L533.103 30.3275L534.639 28.6693H533.232ZM538.873 30.8067C538.873 32.3538 537.816 33.0736 536.646 33.0736C535.478 33.0736 534.412 32.3643 534.412 30.8167C534.412 29.2679 535.478 28.5576 536.646 28.5576C537.816 28.5576 538.873 29.2594 538.873 30.8067ZM536.646 32.1217C535.76 32.1217 535.59 31.3565 535.59 30.8067C535.59 30.2566 535.76 29.508 536.646 29.508C537.532 29.508 537.694 30.2651 537.694 30.8167C537.694 31.365 537.532 32.1217 536.646 32.1217ZM543.181 32.9611V28.6689H539.663V30.6803C539.663 31.9871 539.485 32.1539 539.141 32.1539C538.971 32.1539 538.825 32.1385 538.802 32.1219V32.9611C538.971 33.0233 539.299 33.055 539.499 33.055C540.304 33.055 540.808 32.5372 540.808 30.8957V29.5722H542.034V32.9611H543.181ZM544.912 30.2973L546.356 28.6693H547.763L546.226 30.3275L547.804 32.9611H546.43L545.39 31.1178L544.912 31.6056V32.9611H543.766V28.6693H544.912V30.2973ZM549.772 33.0736C550.942 33.0736 551.998 32.3538 551.998 30.8067C551.998 29.2594 550.942 28.5576 549.772 28.5576C548.602 28.5576 547.538 29.2679 547.538 30.8167C547.538 32.3643 548.602 33.0736 549.772 33.0736ZM548.717 30.8067C548.717 31.3565 548.887 32.1217 549.772 32.1217C550.654 32.1217 550.822 31.365 550.822 30.8167C550.822 30.2651 550.654 29.508 549.772 29.508C548.887 29.508 548.717 30.2566 548.717 30.8067ZM552.369 28.6692H554.343C555.319 28.6692 556.034 29.0614 556.034 29.7779C556.034 30.2721 555.676 30.5899 555.22 30.7026C555.667 30.8074 556.163 31.0878 556.163 31.7896C556.163 32.5847 555.55 32.9617 554.56 32.9617H552.369V28.6692ZM554.26 30.4069H553.513V29.4432H554.269C554.651 29.4432 554.91 29.5707 554.91 29.9208C554.91 30.2573 554.641 30.4069 554.26 30.4069ZM554.356 32.188H553.513V31.0878H554.343C554.766 31.0878 555.042 31.2612 555.042 31.6361C555.042 32.0602 554.78 32.188 554.356 32.188ZM558.526 33.0736C559.698 33.0736 560.751 32.3538 560.751 30.8067C560.751 29.2594 559.698 28.5576 558.526 28.5576C557.357 28.5576 556.29 29.2679 556.29 30.8167C556.29 32.3643 557.357 33.0736 558.526 33.0736ZM557.469 30.8067C557.469 31.3565 557.642 32.1217 558.526 32.1217C559.412 32.1217 559.573 31.365 559.573 30.8167C559.573 30.2651 559.412 29.508 558.526 29.508C557.642 29.508 557.469 30.2566 557.469 30.8067Z" fill="#9CA0C9"/>
<path d="M664.948 0L656.195 5.47318V30.5486L664.948 25.0874V0Z" fill="#9CA0C9"/>
<path d="M664.948 0L656.195 5.47318V30.5486L664.948 25.0874V0Z" fill="black" fill-opacity="0.11"/>
<path d="M664.948 0L656.195 5.47318L672.205 15.5757L680.957 10.1025L664.948 0Z" fill="#9CA0C9"/>
<path d="M672.205 15.5756L680.957 10.1024L684.526 16.5642L675.773 22.0373L672.205 15.5756Z" fill="#9CA0C9"/>
<path d="M672.205 15.5756L680.957 10.1024L684.526 16.5642L675.773 22.0373L672.205 15.5756Z" fill="white" fill-opacity="0.21"/>
<path d="M679.92 34.5268L671.168 40L656.195 30.5485L664.948 25.0874L679.92 34.5268Z" fill="#9CA0C9"/>
<path d="M679.92 34.5268L671.168 40L656.195 30.5485L664.948 25.0874L679.92 34.5268Z" fill="black" fill-opacity="0.2"/>
<path d="M679.92 34.5267L671.168 39.9999L675.773 38.6859L684.525 33.2247L679.92 34.5267Z" fill="#9CA0C9"/>
<path d="M679.92 34.5267L671.168 39.9999L675.773 38.6859L684.525 33.2247L679.92 34.5267Z" fill="black" fill-opacity="0.15"/>
<path d="M684.524 16.5642L675.771 22.0374V38.686L684.524 33.2249V16.5642Z" fill="#9CA0C9"/>
<path d="M699.321 29.3163C698.622 29.3163 697.979 29.1721 697.392 28.8836C696.804 28.5951 696.296 28.1879 695.867 27.6618C695.439 27.1357 695.105 26.5164 694.867 25.8036C694.629 25.074 694.51 24.2849 694.51 23.4364C694.51 22.4522 694.669 21.5189 694.986 20.6364C695.304 19.7371 695.756 18.948 696.344 18.2692C696.931 17.5904 697.622 17.0474 698.416 16.6401C699.225 16.2329 700.122 16.0292 701.107 16.0292C701.885 16.0292 702.591 16.2159 703.226 16.5892C703.877 16.9456 704.338 17.3953 704.608 17.9383H704.798L704.87 16.1565L705.775 10.6838H708.871L705.87 28.9091H702.964L703.203 27.4073H703.012C702.695 27.8994 702.234 28.3406 701.631 28.7309C701.043 29.1212 700.273 29.3163 699.321 29.3163ZM701.202 19.1092C700.678 19.1092 700.194 19.2195 699.749 19.4401C699.321 19.6607 698.947 19.9577 698.63 20.331C698.312 20.7043 698.066 21.137 697.892 21.6292C697.717 22.1213 697.63 22.6388 697.63 23.1819C697.63 24.1152 697.892 24.8618 698.416 25.4218C698.94 25.9649 699.63 26.2364 700.488 26.2364C700.948 26.2364 701.393 26.1346 701.821 25.9309C702.25 25.7273 702.623 25.4473 702.941 25.0909C703.274 24.7346 703.536 24.3018 703.727 23.7928C703.933 23.2837 704.036 22.7237 704.036 22.1128C704.036 21.1964 703.774 20.4667 703.25 19.9237C702.726 19.3807 702.044 19.1092 701.202 19.1092Z" fill="#9CA0C9"/>
<path d="M720.579 25.9055C720.039 26.9236 719.309 27.7467 718.388 28.3745C717.483 29.0024 716.372 29.3163 715.054 29.3163C714.165 29.3163 713.339 29.1551 712.577 28.8327C711.831 28.4933 711.18 28.0266 710.624 27.4327C710.068 26.8388 709.632 26.143 709.314 25.3455C709.012 24.5309 708.862 23.64 708.862 22.6728C708.862 21.7734 709.012 20.9249 709.314 20.1274C709.616 19.3128 710.036 18.6086 710.576 18.0147C711.116 17.4038 711.751 16.9201 712.482 16.5638C713.228 16.2074 714.045 16.0292 714.935 16.0292C715.871 16.0292 716.705 16.1989 717.435 16.5383C718.166 16.8607 718.777 17.3189 719.269 17.9128C719.761 18.4898 720.134 19.1771 720.388 19.9746C720.643 20.7722 720.77 21.6376 720.77 22.571C720.77 22.6897 720.77 22.7916 720.77 22.8764C720.754 22.9782 720.746 23.0716 720.746 23.1564C720.73 23.2413 720.722 23.3346 720.722 23.4364H711.934C711.997 23.9455 712.124 24.3867 712.315 24.76C712.521 25.1164 712.767 25.4218 713.053 25.6764C713.355 25.9139 713.68 26.0921 714.03 26.2109C714.379 26.3127 714.736 26.3636 715.101 26.3636C715.816 26.3636 716.403 26.1939 716.864 25.8546C717.34 25.4982 717.713 25.057 717.983 24.5309L720.579 25.9055ZM717.745 21.0692C717.729 20.8486 717.658 20.6025 717.531 20.331C717.419 20.0595 717.245 19.8049 717.007 19.5674C716.784 19.3298 716.499 19.1346 716.149 18.9819C715.816 18.8292 715.411 18.7528 714.935 18.7528C714.268 18.7528 713.68 18.9565 713.172 19.3637C712.664 19.771 712.307 20.3395 712.101 21.0692H717.745Z" fill="#9CA0C9"/>
<path d="M720.815 16.4365H724.363L727.269 24.3782H727.436L730.365 16.4365H733.89L728.865 28.9091H725.792L720.815 16.4365Z" fill="#9CA0C9"/>
<path d="M745.536 25.9055C744.996 26.9236 744.265 27.7467 743.345 28.3745C742.44 29.0024 741.328 29.3163 740.01 29.3163C739.121 29.3163 738.296 29.1551 737.533 28.8327C736.787 28.4933 736.136 28.0266 735.58 27.4327C735.025 26.8388 734.588 26.143 734.271 25.3455C733.969 24.5309 733.818 23.64 733.818 22.6728C733.818 21.7734 733.969 20.9249 734.271 20.1274C734.572 19.3128 734.993 18.6086 735.533 18.0147C736.073 17.4038 736.708 16.9201 737.438 16.5638C738.184 16.2074 739.002 16.0292 739.891 16.0292C740.828 16.0292 741.662 16.1989 742.392 16.5383C743.122 16.8607 743.734 17.3189 744.226 17.9128C744.718 18.4898 745.091 19.1771 745.345 19.9746C745.599 20.7722 745.726 21.6376 745.726 22.571C745.726 22.6897 745.726 22.7916 745.726 22.8764C745.71 22.9782 745.702 23.0716 745.702 23.1564C745.686 23.2413 745.678 23.3346 745.678 23.4364H736.89C736.954 23.9455 737.081 24.3867 737.271 24.76C737.478 25.1164 737.724 25.4218 738.01 25.6764C738.311 25.9139 738.637 26.0921 738.986 26.2109C739.335 26.3127 739.693 26.3636 740.058 26.3636C740.772 26.3636 741.36 26.1939 741.82 25.8546C742.297 25.4982 742.67 25.057 742.94 24.5309L745.536 25.9055ZM742.701 21.0692C742.686 20.8486 742.614 20.6025 742.487 20.331C742.376 20.0595 742.201 19.8049 741.963 19.5674C741.741 19.3298 741.455 19.1346 741.106 18.9819C740.772 18.8292 740.368 18.7528 739.891 18.7528C739.224 18.7528 738.637 18.9565 738.129 19.3637C737.621 19.771 737.263 20.3395 737.057 21.0692H742.701Z" fill="#9CA0C9"/>
<path d="M758.409 25.9055C757.869 26.9236 757.139 27.7467 756.218 28.3745C755.313 29.0024 754.202 29.3163 752.884 29.3163C751.995 29.3163 751.169 29.1551 750.407 28.8327C749.661 28.4933 749.01 28.0266 748.454 27.4327C747.898 26.8388 747.462 26.143 747.144 25.3455C746.843 24.5309 746.692 23.64 746.692 22.6728C746.692 21.7734 746.843 20.9249 747.144 20.1274C747.446 19.3128 747.867 18.6086 748.407 18.0147C748.946 17.4038 749.581 16.9201 750.312 16.5638C751.058 16.2074 751.876 16.0292 752.765 16.0292C753.702 16.0292 754.535 16.1989 755.266 16.5383C755.996 16.8607 756.607 17.3189 757.099 17.9128C757.592 18.4898 757.965 19.1771 758.219 19.9746C758.473 20.7722 758.6 21.6376 758.6 22.571C758.6 22.6897 758.6 22.7916 758.6 22.8764C758.584 22.9782 758.576 23.0716 758.576 23.1564C758.56 23.2413 758.552 23.3346 758.552 23.4364H749.764C749.828 23.9455 749.955 24.3867 750.145 24.76C750.352 25.1164 750.598 25.4218 750.883 25.6764C751.185 25.9139 751.511 26.0921 751.86 26.2109C752.209 26.3127 752.566 26.3636 752.932 26.3636C753.646 26.3636 754.234 26.1939 754.694 25.8546C755.17 25.4982 755.543 25.057 755.813 24.5309L758.409 25.9055ZM755.575 21.0692C755.559 20.8486 755.488 20.6025 755.361 20.331C755.25 20.0595 755.075 19.8049 754.837 19.5674C754.615 19.3298 754.329 19.1346 753.979 18.9819C753.646 18.8292 753.241 18.7528 752.765 18.7528C752.098 18.7528 751.511 18.9565 751.002 19.3637C750.494 19.771 750.137 20.3395 749.931 21.0692H755.575Z" fill="#9CA0C9"/>
<path d="M758.616 28.9091L761.616 10.6838H764.736L761.736 28.9091H758.616Z" fill="#9CA0C9"/>
<path d="M770.051 29.3163C769.289 29.3163 768.606 29.2145 768.003 29.0109C767.416 28.8072 766.9 28.5442 766.455 28.2218C766.026 27.8824 765.661 27.5006 765.359 27.0764C765.058 26.6352 764.828 26.1939 764.669 25.7527L767.455 24.48C767.725 25.1249 768.082 25.6085 768.527 25.9309C768.987 26.2364 769.496 26.3891 770.051 26.3891C770.623 26.3891 771.075 26.2788 771.409 26.0582C771.742 25.8376 771.909 25.5746 771.909 25.2691C771.909 24.9297 771.766 24.6582 771.48 24.4546C771.21 24.234 770.734 24.0388 770.051 23.8691L768.408 23.4873C768.043 23.4025 767.662 23.2667 767.265 23.08C766.884 22.8934 766.534 22.6558 766.217 22.3673C765.899 22.0788 765.637 21.731 765.431 21.3237C765.224 20.9164 765.121 20.4413 765.121 19.8983C765.121 19.2874 765.24 18.7443 765.479 18.2692C765.733 17.7941 766.074 17.3953 766.503 17.0728C766.931 16.7335 767.431 16.4789 768.003 16.3092C768.59 16.1226 769.218 16.0292 769.885 16.0292C770.996 16.0292 771.988 16.2668 772.862 16.7419C773.735 17.2001 774.378 17.9383 774.791 18.9565L772.099 20.1274C771.877 19.6352 771.552 19.2789 771.123 19.0583C770.694 18.8377 770.266 18.7274 769.837 18.7274C769.392 18.7274 769.003 18.8292 768.67 19.0328C768.336 19.2195 768.17 19.4655 768.17 19.771C768.17 20.0595 768.305 20.2886 768.575 20.4583C768.86 20.628 769.241 20.7807 769.718 20.9164L771.504 21.3746C772.695 21.6801 773.576 22.1722 774.148 22.851C774.735 23.5128 775.029 24.3018 775.029 25.2182C775.029 25.7612 774.91 26.2788 774.672 26.7709C774.433 27.263 774.092 27.7042 773.647 28.0945C773.219 28.4679 772.695 28.7648 772.076 28.9854C771.472 29.206 770.797 29.3163 770.051 29.3163Z" fill="#9CA0C9"/>
</svg>
