<svg width="268" height="560" viewBox="0 0 268 560" fill="none" xmlns="http://www.w3.org/2000/svg">
<g filter="url(#filter0_i_483_868)">
<path fill-rule="evenodd" clip-rule="evenodd" d="M229.326 0.444797H38.9147C18.034 0.444797 1.10691 17.3719 1.10691 38.2526V521.747C1.10691 542.628 18.034 559.555 38.9147 559.555H229.326C250.207 559.555 267.134 542.628 267.134 521.747V38.2526C267.134 17.3719 250.207 0.444797 229.326 0.444797ZM38.9147 0C17.7884 0 0.662109 17.1263 0.662109 38.2526V521.747C0.662109 542.874 17.7884 560 38.9147 560H229.326C250.452 560 267.579 542.874 267.579 521.747V38.2526C267.579 17.1263 250.452 0 229.326 0H38.9147Z" fill="#474970"/>
</g>
<defs>
<filter id="filter0_i_483_868" x="0.662109" y="0" width="266.916" height="560" filterUnits="userSpaceOnUse" color-interpolation-filters="sRGB">
<feFlood flood-opacity="0" result="BackgroundImageFix"/>
<feBlend mode="normal" in="SourceGraphic" in2="BackgroundImageFix" result="shape"/>
<feColorMatrix in="SourceAlpha" type="matrix" values="0 0 0 0 0 0 0 0 0 0 0 0 0 0 0 0 0 0 127 0" result="hardAlpha"/>
<feOffset/>
<feGaussianBlur stdDeviation="0.493249"/>
<feComposite in2="hardAlpha" operator="arithmetic" k2="-1" k3="1"/>
<feColorMatrix type="matrix" values="0 0 0 0 0 0 0 0 0 0.101961 0 0 0 0 0.152941 0 0 0 1 0"/>
<feBlend mode="normal" in2="shape" result="effect1_innerShadow_483_868"/>
</filter>
</defs>
</svg>
